<svg xmlns="http://www.w3.org/2000/svg" viewBox="0 0 370 370">
  <path d="M40 40h10v10H40zm10 0h10v10H50zm10 0h10v10H60zm10 0h10v10H70zm10 0h10v10H80zm10 0h10v10H90zm10 0h10v10h-10zm40 0h10v10h-10zm10 0h10v10h-10zm10 0h10v10h-10zm10 0h10v10h-10zm10 0h10v10h-10zm10 0h10v10h-10zm30 0h10v10h-10zm40 0h10v10h-10zm10 0h10v10h-10zm10 0h10v10h-10zm10 0h10v10h-10zm10 0h10v10h-10zm10 0h10v10h-10zm10 0h10v10h-10zM40 50h10v10H40zm60 0h10v10h-10zm20 0h10v10h-10zm10 0h10v10h-10zm10 0h10v10h-10zm50 0h10v10h-10zm20 0h10v10h-10zm30 0h10v10h-10zm20 0h10v10h-10zm60 0h10v10h-10zM40 60h10v10H40zm20 0h10v10H60zm10 0h10v10H70zm10 0h10v10H80zm20 0h10v10h-10zm20 0h10v10h-10zm10 0h10v10h-10zm30 0h10v10h-10zm20 0h10v10h-10zm20 0h10v10h-10zm30 0h10v10h-10zm30 0h10v10h-10zm20 0h10v10h-10zm10 0h10v10h-10zm10 0h10v10h-10zm20 0h10v10h-10zM40 70h10v10H40zm20 0h10v10H60zm10 0h10v10H70zm10 0h10v10H80zm20 0h10v10h-10zm20 0h10v10h-10zm10 0h10v10h-10zm10 0h10v10h-10zm40 0h10v10h-10zm10 0h10v10h-10zm20 0h10v10h-10zm30 0h10v10h-10zm20 0h10v10h-10zm20 0h10v10h-10zm10 0h10v10h-10zm10 0h10v10h-10zm20 0h10v10h-10zM40 80h10v10H40zm20 0h10v10H60zm10 0h10v10H70zm10 0h10v10H80zm20 0h10v10h-10zm30 0h10v10h-10zm30 0h10v10h-10zm10 0h10v10h-10zm10 0h10v10h-10zm10 0h10v10h-10zm20 0h10v10h-10zm10 0h10v10h-10zm10 0h10v10h-10zm10 0h10v10h-10zm20 0h10v10h-10zm20 0h10v10h-10zm10 0h10v10h-10zm10 0h10v10h-10zm20 0h10v10h-10zM40 90h10v10H40zm60 0h10v10h-10zm50 0h10v10h-10zm20 0h10v10h-10zm10 0h10v10h-10zm20 0h10v10h-10zm60 0h10v10h-10zm60 0h10v10h-10zM40 100h10v10H40zm10 0h10v10H50zm10 0h10v10H60zm10 0h10v10H70zm10 0h10v10H80zm10 0h10v10H90zm10 0h10v10h-10zm20 0h10v10h-10zm20 0h10v10h-10zm20 0h10v10h-10zm20 0h10v10h-10zm20 0h10v10h-10zm20 0h10v10h-10zm20 0h10v10h-10zm20 0h10v10h-10zm10 0h10v10h-10zm10 0h10v10h-10zm10 0h10v10h-10zm10 0h10v10h-10zm10 0h10v10h-10zm10 0h10v10h-10zm-200 10h10v10h-10zm10 0h10v10h-10zm10 0h10v10h-10zm20 0h10v10h-10zm10 0h10v10h-10zm60 0h10v10h-10zm10 0h10v10h-10zM40 120h10v10H40zm60 0h10v10h-10zm20 0h10v10h-10zm30 0h10v10h-10zm10 0h10v10h-10zm20 0h10v10h-10zm10 0h10v10h-10zm20 0h10v10h-10zm10 0h10v10h-10zm10 0h10v10h-10zm20 0h10v10h-10zm10 0h10v10h-10zm30 0h10v10h-10zm10 0h10v10h-10zm10 0h10v10h-10zM40 130h10v10H40zm10 0h10v10H50zm30 0h10v10H80zm50 0h10v10h-10zm20 0h10v10h-10zm30 0h10v10h-10zm30 0h10v10h-10zm10 0h10v10h-10zm10 0h10v10h-10zm10 0h10v10h-10zm10 0h10v10h-10zm20 0h10v10h-10zm10 0h10v10h-10zm20 0h10v10h-10zm10 0h10v10h-10zM40 140h10v10H40zm10 0h10v10H50zm30 0h10v10H80zm10 0h10v10H90zm10 0h10v10h-10zm20 0h10v10h-10zm10 0h10v10h-10zm10 0h10v10h-10zm20 0h10v10h-10zm50 0h10v10h-10zm30 0h10v10h-10zm30 0h10v10h-10zm10 0h10v10h-10zM40 150h10v10H40zm10 0h10v10H50zm10 0h10v10H60zm30 0h10v10H90zm30 0h10v10h-10zm10 0h10v10h-10zm50 0h10v10h-10zm10 0h10v10h-10zm10 0h10v10h-10zm20 0h10v10h-10zm10 0h10v10h-10zm20 0h10v10h-10zm30 0h10v10h-10zM40 160h10v10H40zm10 0h10v10H50zm40 0h10v10H90zm10 0h10v10h-10zm20 0h10v10h-10zm10 0h10v10h-10zm10 0h10v10h-10zm10 0h10v10h-10zm10 0h10v10h-10zm10 0h10v10h-10zm10 0h10v10h-10zm60 0h10v10h-10zm20 0h10v10h-10zm60 0h10v10h-10zM60 170h10v10H60zm50 0h10v10h-10zm20 0h10v10h-10zm30 0h10v10h-10zm10 0h10v10h-10zm10 0h10v10h-10zm50 0h10v10h-10zm10 0h10v10h-10zm20 0h10v10h-10zm10 0h10v10h-10zm10 0h10v10h-10zm20 0h10v10h-10zm10 0h10v10h-10zm10 0h10v10h-10zM40 180h10v10H40zm20 0h10v10H60zm20 0h10v10H80zm10 0h10v10H90zm10 0h10v10h-10zm10 0h10v10h-10zm10 0h10v10h-10zm30 0h10v10h-10zm10 0h10v10h-10zm10 0h10v10h-10zm10 0h10v10h-10zm10 0h10v10h-10zm10 0h10v10h-10zm50 0h10v10h-10zm10 0h10v10h-10zm40 0h10v10h-10zM60 190h10v10H60zm60 0h10v10h-10zm10 0h10v10h-10zm10 0h10v10h-10zm10 0h10v10h-10zm20 0h10v10h-10zm10 0h10v10h-10zm20 0h10v10h-10zm20 0h10v10h-10zm10 0h10v10h-10zm10 0h10v10h-10zm10 0h10v10h-10zm10 0h10v10h-10zm10 0h10v10h-10zm30 0h10v10h-10zm20 0h10v10h-10zM40 200h10v10H40zm20 0h10v10H60zm20 0h10v10H80zm10 0h10v10H90zm10 0h10v10h-10zm10 0h10v10h-10zm50 0h10v10h-10zm20 0h10v10h-10zm10 0h10v10h-10zm20 0h10v10h-10zm30 0h10v10h-10zm60 0h10v10h-10zM80 210h10v10H80zm30 0h10v10h-10zm20 0h10v10h-10zm20 0h10v10h-10zm50 0h10v10h-10zm30 0h10v10h-10zm10 0h10v10h-10zm20 0h10v10h-10zm20 0h10v10h-10zm10 0h10v10h-10zm10 0h10v10h-10zm10 0h10v10h-10zm10 0h10v10h-10zM70 220h10v10H70zm10 0h10v10H80zm10 0h10v10H90zm10 0h10v10h-10zm20 0h10v10h-10zm10 0h10v10h-10zm40 0h10v10h-10zm10 0h10v10h-10zm20 0h10v10h-10zm30 0h10v10h-10zm20 0h10v10h-10zm10 0h10v10h-10zm60 0h10v10h-10zM50 230h10v10H50zm10 0h10v10H60zm60 0h10v10h-10zm30 0h10v10h-10zm30 0h10v10h-10zm10 0h10v10h-10zm10 0h10v10h-10zm50 0h10v10h-10zm10 0h10v10h-10zm10 0h10v10h-10zm10 0h10v10h-10zM50 240h10v10H50zm10 0h10v10H60zm10 0h10v10H70zm20 0h10v10H90zm10 0h10v10h-10zm30 0h10v10h-10zm30 0h10v10h-10zm40 0h10v10h-10zm20 0h10v10h-10zm20 0h10v10h-10zm10 0h10v10h-10zm10 0h10v10h-10zm10 0h10v10h-10zm10 0h10v10h-10zm20 0h10v10h-10zm10 0h10v10h-10zm10 0h10v10h-10zm-200 10h10v10h-10zm40 0h10v10h-10zm10 0h10v10h-10zm30 0h10v10h-10zm10 0h10v10h-10zm10 0h10v10h-10zm20 0h10v10h-10zm40 0h10v10h-10zm10 0h10v10h-10zM40 260h10v10H40zm10 0h10v10H50zm10 0h10v10H60zm10 0h10v10H70zm10 0h10v10H80zm10 0h10v10H90zm10 0h10v10h-10zm30 0h10v10h-10zm10 0h10v10h-10zm20 0h10v10h-10zm10 0h10v10h-10zm10 0h10v10h-10zm10 0h10v10h-10zm10 0h10v10h-10zm10 0h10v10h-10zm20 0h10v10h-10zm10 0h10v10h-10zm20 0h10v10h-10zm20 0h10v10h-10zm10 0h10v10h-10zm10 0h10v10h-10zM40 270h10v10H40zm60 0h10v10h-10zm30 0h10v10h-10zm30 0h10v10h-10zm10 0h10v10h-10zm40 0h10v10h-10zm10 0h10v10h-10zm10 0h10v10h-10zm10 0h10v10h-10zm40 0h10v10h-10zm10 0h10v10h-10zm20 0h10v10h-10zm10 0h10v10h-10zM40 280h10v10H40zm20 0h10v10H60zm10 0h10v10H70zm10 0h10v10H80zm20 0h10v10h-10zm30 0h10v10h-10zm20 0h10v10h-10zm20 0h10v10h-10zm20 0h10v10h-10zm10 0h10v10h-10zm10 0h10v10h-10zm20 0h10v10h-10zm10 0h10v10h-10zm10 0h10v10h-10zm10 0h10v10h-10zm10 0h10v10h-10zm10 0h10v10h-10zm30 0h10v10h-10zM40 290h10v10H40zm20 0h10v10H60zm10 0h10v10H70zm10 0h10v10H80zm20 0h10v10h-10zm30 0h10v10h-10zm10 0h10v10h-10zm60 0h10v10h-10zm20 0h10v10h-10zm10 0h10v10h-10zm20 0h10v10h-10zm20 0h10v10h-10zm20 0h10v10h-10zm20 0h10v10h-10zM40 300h10v10H40zm20 0h10v10H60zm10 0h10v10H70zm10 0h10v10H80zm20 0h10v10h-10zm30 0h10v10h-10zm20 0h10v10h-10zm20 0h10v10h-10zm50 0h10v10h-10zm10 0h10v10h-10zm10 0h10v10h-10zm10 0h10v10h-10zm10 0h10v10h-10zm10 0h10v10h-10zm10 0h10v10h-10zm10 0h10v10h-10zm10 0h10v10h-10zm10 0h10v10h-10zM40 310h10v10H40zm60 0h10v10h-10zm30 0h10v10h-10zm40 0h10v10h-10zm20 0h10v10h-10zm80 0h10v10h-10zm20 0h10v10h-10zm10 0h10v10h-10zm20 0h10v10h-10zM40 320h10v10H40zm10 0h10v10H50zm10 0h10v10H60zm10 0h10v10H70zm10 0h10v10H80zm10 0h10v10H90zm10 0h10v10h-10zm20 0h10v10h-10zm10 0h10v10h-10zm20 0h10v10h-10zm10 0h10v10h-10zm40 0h10v10h-10zm20 0h10v10h-10zm10 0h10v10h-10zm30 0h10v10h-10zm10 0h10v10h-10zm10 0h10v10h-10zm10 0h10v10h-10zm10 0h10v10h-10z" fill="#000"/>
</svg>
