<svg xmlns="http://www.w3.org/2000/svg" viewBox="0 0 192.69 192.69">
  <path d="M29.21 157.25c-.29 0-.53-.24-.53-.53v-45.88c0-.29.24-.53.53-.53s.53.24.53.53v45.88c0 .29-.24.53-.53.53zm-6.29-18.64c-.08 0-.15-.02-.23-.05a.53.53 0 01-.25-.7c3.32-6.97 3.12-16.91 3.12-17.01 0-.29.22-.53.51-.54.26 0 .53.22.54.51.01.42.22 10.28-3.22 17.49-.09.19-.28.3-.48.3z" fill="#3e3a39"/>
  <path d="M34.37 132.84c-.21 0-.41-.13-.49-.34-2.08-5.35-5.02-8.57-5.05-8.6-.2-.21-.18-.55.03-.74.21-.2.55-.19.74.03.13.14 3.11 3.39 5.26 8.93a.52.52 0 01-.3.68c-.06.02-.13.04-.19.04zm74.93-8.83h-3.38c-3.8 0-6.9-3.1-6.9-6.9s3.1-6.9 6.9-6.9h3.38c3.8 0 6.9 3.1 6.9 6.9s-3.1 6.9-6.9 6.9zm-3.38-12.75c-3.22 0-5.85 2.62-5.85 5.85s2.62 5.85 5.85 5.85h3.38c3.22 0 5.85-2.62 5.85-5.85s-2.62-5.85-5.85-5.85h-3.38zm-62.78 11.2c-.29 0-.53-.24-.53-.53v-2.2c0-.29.24-.53.53-.53s.53.24.53.53v2.2c0 .29-.24.53-.53.53zm0 13.54c-.29 0-.53-.24-.53-.53v-9.74c0-.29.24-.53.53-.53s.53.24.53.53v9.74c0 .29-.24.53-.53.53z" fill="#3e3a39"/>
  <path d="M43.14 157.25c-.29 0-.53-.24-.53-.53v-21.25c0-.29.24-.53.53-.53s.53.24.53.53v21.25c0 .29-.24.53-.53.53zm72.53-27.8H99.54c-.29 0-.53-.24-.53-.53s.24-.53.53-.53h16.13c.29 0 .53.24.53.53s-.24.53-.53.53zm-6.25 6.55h-9.88c-.29 0-.53-.24-.53-.53s.24-.53.53-.53h9.88c.29 0 .53.24.53.53s-.24.53-.53.53zm-45.61 21.25c-.19 0-.37-.1-.46-.28-1.02-1.89-3.11-3.4-5.31-3.79-.82 1.06-1.7 2.19-2.78 3-.45.34-1.2.62-1.85.46-.43-.1-.77-.38-.97-.79-.6-1.23.52-2.55 1.47-3.06a6.47 6.47 0 013.59-.75c.3-.56.83-1.54 1.31-2.56.12-.26.44-.38.7-.25.26.12.38.44.25.7-.4.86-.84 1.69-1.16 2.28 2.39.54 4.55 2.21 5.67 4.27.14.26.04.58-.21.71-.08.04-.17.06-.25.06zm-7.03-4.16c-.81.02-1.62.22-2.37.63-.51.27-1.3 1.09-1.02 1.67.06.13.14.2.27.23.29.07.72-.08.97-.27.81-.61 1.5-1.42 2.15-2.25zm-15.6-34.57c-2.31 0-4.56-.82-6.25-2.48a.525.525 0 010-.75c.2-.21.54-.21.75 0 3.12 3.06 8.42 2.88 11.83-.4.59-.57 1.54-1.92.89-2.89-.21-.32-.53-.51-.93-.57-.63-.1-1.44.13-2 .57-1.11.87-1.47 2.05-1.68 3.54-.04.29-.31.49-.59.45a.52.52 0 01-.45-.59c.2-1.52.6-3.08 2.07-4.23.79-.62 1.9-.93 2.82-.78.7.11 1.27.46 1.64 1.02.91 1.36.14 3.11-1.03 4.24-1.98 1.91-4.55 2.88-7.05 2.88zm44 9.05c-2.68 0-5.16-.78-6.93-2.21a.525.525 0 01-.08-.74c.18-.23.51-.26.74-.08 1.78 1.44 4.4 2.14 7.21 1.94 1.25-.09 5.39-.59 6.43-3.21.2-.49.15-1.01-.11-1.41-.26-.39-.7-.61-1.22-.62h-.04c-2.02 0-3.25 1.87-3.53 3.62-.05.29-.32.48-.61.44a.539.539 0 01-.44-.61c.36-2.19 1.96-4.58 4.63-4.5.86.01 1.62.41 2.08 1.09.46.69.54 1.56.22 2.38-1.23 3.1-5.53 3.74-7.33 3.87-.34.03-.68.04-1.02.04zm-39.43 5.9c-.29 0-.53-.24-.53-.53s.24-.53.53-.53c1.94 0 3.52-1.58 3.52-3.52v-1.32c0-1.94-1.58-3.52-3.52-3.52h-5.19c-1.94 0-3.52 1.58-3.52 3.52v1.32c0 1.94 1.58 3.52 3.52 3.52.29 0 .53.24.53.53s-.24.53-.53.53c-2.52 0-4.58-2.05-4.58-4.58v-1.32c0-2.52 2.05-4.58 4.58-4.58h5.19c2.52 0 4.58 2.05 4.58 4.58v1.32c0 2.52-2.05 4.58-4.58 4.58zm13.99 14.5h-2.47c-2.43 0-4.41-1.98-4.41-4.41v-14.79c0-2.43 1.98-4.41 4.41-4.41h2.47c2.43 0 4.41 1.98 4.41 4.41v14.79c0 1.94-1.3 3.67-3.15 4.23-.4.12-.83.18-1.26.18zm-2.47-22.55a3.35 3.35 0 00-3.35 3.35v14.79c0 1.85 1.5 3.35 3.35 3.35h2.47c.33 0 .65-.05.96-.14 1.41-.42 2.4-1.74 2.4-3.22v-14.79c0-1.85-1.5-3.35-3.35-3.35h-2.47z" fill="#3e3a39"/>
  <path d="M60.85 132.87h-4.38c-.29 0-.53-.24-.53-.53s.24-.53.53-.53h4.38c.29 0 .53.24.53.53s-.24.53-.53.53zm43.84 14.92c-.18 0-.35-.09-.45-.26l-2.25-3.75a.523.523 0 01.18-.72c.25-.15.57-.07.72.18l2.25 3.75c.15.25.07.57-.18.72a.53.53 0 01-.27.08zm5.48-30.16h-4.38c-.29 0-.53-.24-.53-.53s.24-.53.53-.53h4.38c.29 0 .53.24.53.53s-.24.53-.53.53zm-49.32 22.06h-4.38c-.29 0-.53-.24-.53-.53s.24-.53.53-.53h4.38c.29 0 .53.24.53.53s-.24.53-.53.53zm.3-17.71c-.29 0-.53-.24-.53-.53s.24-.53.53-.53c1.07 0 1.95-.87 1.95-1.95v-3.56c0-1.3-1.06-2.36-2.36-2.36h-6.58c-.29 0-.53-.24-.53-.53s.24-.53.53-.53h6.58c1.88 0 3.42 1.53 3.42 3.42v3.56c0 1.65-1.35 3-3 3z" fill="#3e3a39"/>
  <path d="M54.2 121.39c-.21 0-.42-.13-.49-.34-.1-.27.04-.58.31-.68 2.64-.98 2.79-5.25 2.79-5.29 0-.29.27-.52.54-.51.29 0 .52.25.51.54 0 .2-.16 5.02-3.48 6.25-.06.02-.12.03-.18.03zm-21.07 35.86c-.12 0-.24-.04-.34-.13a.523.523 0 01-.05-.74c7.21-8.34 7.3-23.28 7.3-23.43 0-.29.24-.53.53-.53.29 0 .53.24.53.53 0 .63-.09 15.49-7.56 24.12-.1.12-.25.18-.4.18zm18.36-5.17c-.16 0-.31-.07-.42-.2-4.69-6.07-5.17-15.97-5.19-16.38-.01-.29.21-.54.5-.55.29-.03.54.21.55.5 0 .1.48 9.99 4.97 15.79.18.23.14.56-.09.74-.1.07-.21.11-.32.11zm52.7 6.31c-.22 0-.43-.14-.5-.37a.52.52 0 01.34-.66c7.43-2.38 7.3-11.21 7.2-18.31-.01-.77-.02-1.51-.02-2.22v-5.36c0-.29.24-.53.53-.53s.53.24.53.53v5.36c0 .7.01 1.44.02 2.2.1 7.05.25 16.71-7.93 19.33-.05.02-.11.03-.16.03zm-25.16 0c-.22 0-.43-.14-.5-.37a.52.52 0 01.34-.66c8.06-2.58 7.92-12.14 7.8-19.83-.01-.83-.02-1.64-.02-2.4v-5.79c0-.29.24-.53.53-.53s.53.24.53.53v5.79c0 .75.01 1.55.02 2.38.11 7.61.27 18.02-8.54 20.85-.05.02-.11.03-.16.03zM115.67 136h-1.68c-.29 0-.53-.24-.53-.53s.24-.53.53-.53h1.68c.29 0 .53.24.53.53s-.24.53-.53.53zm-36.64-15.66a.525.525 0 11-.01-1.05c9.41-.06 13.54-7.83 13.58-7.91a.529.529 0 01.94.48c-.04.08-4.44 8.42-14.51 8.48zm-55.35 56.33c-.09 0-.16-.03-.21-.08a.288.288 0 01-.09-.21v-5.63c0-.08.03-.16.09-.21.06-.06.13-.08.21-.08h.38c.09 0 .16.03.21.08.06.06.09.13.09.21v5.1s.01.04.04.04h2.52c.09 0 .16.03.21.09.06.06.09.13.09.21v.19c0 .09-.03.16-.09.21-.06.06-.13.08-.21.08h-3.24zm6.69 0c-.07 0-.13-.03-.18-.09a.204.204 0 01-.02-.2l1.94-5.65a.408.408 0 01.39-.29h.43c.09 0 .17.03.24.08.07.05.13.12.16.21l1.94 5.65c.02.07.01.13-.03.2-.05.06-.1.09-.17.09h-.41c-.09 0-.17-.03-.24-.08a.345.345 0 01-.14-.21l-.41-1.32s-.03-.04-.05-.04H31.6s-.05.01-.05.04l-.41 1.32c-.03.09-.08.16-.15.21s-.15.08-.23.08h-.38zm2.32-5.37l-.9 2.94v.03c0 .01.02.02.03.02h1.76s.01 0 .02-.02.01-.02.01-.03l-.9-2.94zm5.86 5.37c-.09 0-.16-.03-.21-.08a.288.288 0 01-.09-.21v-.17c0-.2.05-.38.16-.55l2.83-4.41h-2.7c-.09 0-.16-.03-.21-.08a.288.288 0 01-.09-.21v-.17c0-.08.03-.16.09-.21.06-.06.13-.08.21-.08h3.5c.08 0 .16.03.21.08.06.06.09.13.09.21v.17c0 .2-.05.38-.16.55l-2.83 4.41h2.7c.08 0 .16.03.21.08.06.06.09.13.09.21v.17c0 .09-.03.16-.09.21-.06.06-.13.08-.21.08h-3.5zm7.75 0c-.08 0-.16-.03-.21-.08a.288.288 0 01-.09-.21v-5.63c0-.08.03-.16.09-.21.06-.06.13-.08.21-.08h.43c.09 0 .16.03.21.08.06.06.09.13.09.21v5.63c0 .09-.03.16-.09.21-.06.06-.13.08-.21.08h-.43zm4.77 0c-.09 0-.16-.03-.21-.08a.288.288 0 01-.09-.21v-5.63c0-.08.03-.16.09-.21.06-.06.13-.08.21-.08h.32c.2 0 .35.09.45.26l2.51 4.38v-4.34c0-.08.03-.16.09-.21.06-.06.13-.08.21-.08h.32c.09 0 .16.03.21.08.06.06.09.13.09.21v5.63c0 .09-.03.16-.09.21-.06.06-.13.08-.21.08h-.32c-.2 0-.35-.09-.45-.26l-2.5-4.38h-.02v4.34c0 .09-.03.16-.09.21-.06.06-.13.08-.21.08h-.32zm8.06 0c-.09 0-.16-.03-.21-.08a.288.288 0 01-.09-.21v-5.63c0-.08.03-.16.09-.21.06-.06.13-.08.21-.08h3.16c.09 0 .16.03.21.08.06.06.09.13.09.21v.17c0 .09-.03.16-.09.21-.06.06-.13.08-.21.08h-2.47s-.04.01-.04.04v1.69s.01.04.04.04h2.3c.09 0 .16.03.21.09.06.06.08.13.08.21v.14c0 .08-.03.16-.08.21-.06.06-.13.09-.21.09h-2.3s-.04.01-.04.04v2.1s.01.04.04.04h2.47c.09 0 .16.03.21.08.06.06.09.13.09.21v.17c0 .09-.03.16-.09.21-.06.06-.13.08-.21.08h-3.16zm8.44-2.78c-.65-.22-1.12-.49-1.4-.8-.29-.31-.43-.68-.43-1.12 0-.5.16-.9.48-1.19.32-.29.76-.44 1.31-.44s1.07.08 1.5.23c.19.07.29.21.29.41v.28c0 .07-.03.12-.09.15s-.12.04-.18 0a3.32 3.32 0 00-1.43-.33c-.31 0-.54.08-.71.23-.17.15-.25.37-.25.64 0 .22.08.42.23.6.15.18.38.32.68.42.75.25 1.27.53 1.57.84.29.31.44.7.44 1.17 0 .58-.18 1.01-.53 1.31-.35.3-.87.44-1.56.44-.51 0-.96-.08-1.34-.25-.19-.08-.28-.23-.28-.44v-.3c0-.06.03-.11.09-.14.06-.03.11-.03.17 0 .4.23.83.35 1.28.35.82 0 1.24-.33 1.24-.98 0-.25-.08-.46-.24-.64-.16-.18-.44-.33-.82-.47zm6.77 0c-.65-.22-1.12-.49-1.4-.8-.29-.31-.43-.68-.43-1.12 0-.5.16-.9.48-1.19.32-.29.76-.44 1.31-.44s1.07.08 1.5.23c.19.07.29.21.29.41v.28c0 .07-.03.12-.09.15s-.12.04-.18 0a3.32 3.32 0 00-1.43-.33c-.31 0-.54.08-.71.23-.17.15-.25.37-.25.64 0 .22.08.42.23.6.15.18.38.32.68.42.75.25 1.27.53 1.57.84.29.31.44.7.44 1.17 0 .58-.18 1.01-.53 1.31-.35.3-.87.44-1.56.44-.51 0-.96-.08-1.34-.25-.19-.08-.28-.23-.28-.44v-.3c0-.06.03-.11.09-.14.06-.03.11-.03.17 0 .4.23.83.35 1.28.35.82 0 1.24-.33 1.24-.98 0-.25-.08-.46-.24-.64-.16-.18-.44-.33-.82-.47zm12.3 2.86c-.86 0-1.56-.28-2.08-.84s-.78-1.34-.78-2.36.25-1.79.75-2.36c.5-.56 1.2-.84 2.1-.84.44 0 .82.03 1.16.1.09.02.16.06.21.13.05.07.08.15.08.24v.22c0 .07-.03.13-.09.18-.06.05-.13.06-.2.03a3.96 3.96 0 00-1.07-.14c-.61 0-1.1.21-1.45.64-.36.42-.53 1.02-.53 1.8s.18 1.37.55 1.8c.36.42.84.64 1.44.64.41 0 .78-.05 1.12-.14.07-.02.14-.01.2.03.06.05.09.11.09.18v.22a.4.4 0 01-.08.23c-.05.07-.12.11-.21.13-.38.07-.78.11-1.2.11zm4.73-.08c-.07 0-.13-.03-.18-.09a.204.204 0 01-.02-.2l1.94-5.65a.408.408 0 01.39-.29h.43c.09 0 .17.03.24.08.07.05.13.12.16.21l1.94 5.65c.02.07.01.13-.03.2-.05.06-.1.09-.17.09h-.41c-.09 0-.17-.03-.24-.08a.345.345 0 01-.14-.21l-.41-1.32s-.03-.04-.05-.04H92.6s-.05.01-.05.04l-.41 1.32c-.03.09-.08.16-.15.21s-.15.08-.23.08h-.38zm2.32-5.37l-.9 2.94v.03c0 .01.02.02.03.02h1.76s.01 0 .02-.02.01-.02.01-.03l-.9-2.94zm5.94 5.37c-.09 0-.16-.03-.21-.08a.288.288 0 01-.09-.21v-5.63c0-.08.03-.16.09-.21.06-.06.13-.08.21-.08h.32c.2 0 .35.09.45.26l2.51 4.38v-4.34c0-.08.03-.16.09-.21.06-.06.13-.08.21-.08h.32c.09 0 .16.03.21.08.06.06.09.13.09.21v5.63c0 .09-.03.16-.09.21-.06.06-.13.08-.21.08h-.32c-.2 0-.35-.09-.45-.26l-2.5-4.38h-.02v4.34c0 .09-.03.16-.08.21-.06.06-.13.08-.21.08h-.32zm12.56 0a.325.325 0 01-.22-.12.334.334 0 01-.09-.23v-5.55c0-.09.03-.16.09-.23s.13-.1.21-.12c.47-.06.91-.09 1.32-.09 1.54 0 2.3.51 2.3 1.54 0 .34-.12.64-.35.9-.23.26-.54.42-.92.5.48.07.85.25 1.12.53.27.28.41.63.41 1.04 0 1.25-.83 1.88-2.47 1.88-.51 0-.98-.03-1.4-.08zm.63-5.46v1.73s.01.04.04.04h.3c.63 0 1.08-.08 1.35-.24.28-.16.41-.4.41-.73s-.11-.54-.33-.69c-.22-.15-.59-.22-1.09-.22-.23 0-.44.02-.64.05-.03 0-.04.02-.04.05zm0 2.55v2.14s.01.05.04.05c.22.03.46.05.73.05.53 0 .93-.1 1.18-.3.25-.2.38-.5.38-.91 0-.37-.15-.64-.45-.82-.3-.17-.81-.26-1.53-.26h-.3s-.04.01-.04.04zm6.69 2.91c-.09 0-.16-.03-.21-.08a.288.288 0 01-.09-.21v-5.63c0-.08.03-.16.09-.21.06-.06.13-.08.21-.08h3.16c.09 0 .16.03.21.08.06.06.09.13.09.21v.17c0 .09-.03.16-.09.21-.06.06-.13.08-.21.08h-2.47s-.04.01-.04.04v1.69s.01.04.04.04h2.3c.09 0 .16.03.21.09.06.06.08.13.08.21v.14c0 .08-.03.16-.08.21-.06.06-.13.09-.21.09h-2.3s-.04.01-.04.04v2.1s.01.04.04.04h2.47c.09 0 .16.03.21.08.06.06.09.13.09.21v.17c0 .09-.03.16-.09.21-.06.06-.13.08-.21.08h-3.16zm13.03-2.78c-.65-.22-1.12-.49-1.4-.8-.29-.31-.43-.68-.43-1.12 0-.5.16-.9.48-1.19.32-.29.76-.44 1.31-.44s1.07.08 1.5.23c.19.07.29.21.29.41v.28c0 .07-.03.12-.09.15s-.12.04-.18 0a3.32 3.32 0 00-1.43-.33c-.31 0-.54.08-.71.23-.17.15-.25.37-.25.64 0 .22.08.42.23.6.15.18.38.32.68.42.75.25 1.27.53 1.57.84.29.31.44.7.44 1.17 0 .58-.18 1.01-.53 1.31-.35.3-.87.44-1.56.44-.51 0-.96-.08-1.34-.25-.19-.08-.28-.23-.28-.44v-.3c0-.06.03-.11.09-.14.06-.03.11-.03.17 0 .4.23.83.35 1.28.35.82 0 1.24-.33 1.24-.98 0-.25-.08-.46-.24-.64-.16-.18-.44-.33-.82-.47zm5.83 2.78c-.08 0-.16-.03-.21-.08a.288.288 0 01-.09-.21v-5.63c0-.08.03-.16.09-.21.06-.06.13-.08.21-.08h.43c.09 0 .16.03.21.08.06.06.09.13.09.21v5.63c0 .09-.03.16-.09.21-.06.06-.13.08-.21.08h-.43zm4.77 0c-.09 0-.16-.03-.21-.08a.288.288 0 01-.09-.21v-5.63c0-.08.03-.16.09-.21.06-.06.13-.08.21-.08h.31c.19 0 .34.09.44.27l1.75 3.39 1.75-3.39c.1-.18.24-.27.44-.27h.34c.09 0 .16.03.21.08.06.06.09.13.09.21v5.63c0 .09-.03.16-.09.21-.06.06-.13.08-.21.08h-.34c-.09 0-.16-.03-.21-.08a.288.288 0 01-.09-.21v-4.3l-1.31 2.62c-.1.18-.24.27-.44.27h-.26a.48.48 0 01-.44-.27l-1.31-2.62v4.3c0 .09-.03.16-.08.21-.06.06-.13.08-.21.08h-.31zm9.17 0c-.09 0-.16-.03-.21-.08a.288.288 0 01-.09-.21v-5.59c0-.09.03-.17.09-.23s.13-.1.22-.11c.48-.06 1-.09 1.57-.09.79 0 1.38.17 1.78.5.4.33.61.81.61 1.42 0 1.39-.8 2.09-2.39 2.09-.28 0-.58-.01-.9-.04-.03 0-.04.01-.04.04v2c0 .09-.03.16-.09.21-.06.06-.13.08-.21.08h-.34zm.64-5.46v2.31s.02.05.05.05c.23.04.5.06.8.06.5 0 .88-.11 1.15-.33.27-.22.4-.53.4-.94s-.13-.72-.39-.93c-.26-.21-.65-.32-1.16-.32-.28 0-.55.02-.8.05-.03 0-.05.02-.05.05zm6.73 5.46c-.09 0-.16-.03-.21-.08a.288.288 0 01-.09-.21v-5.63c0-.08.03-.16.09-.21.06-.06.13-.08.21-.08h.38c.09 0 .16.03.21.08.06.06.09.13.09.21v5.1s.01.04.04.04h2.52c.09 0 .16.03.21.09.06.06.09.13.09.21v.19c0 .09-.03.16-.09.21-.06.06-.13.08-.21.08h-3.24zm7.16 0c-.09 0-.16-.03-.21-.08a.288.288 0 01-.09-.21v-5.63c0-.08.03-.16.09-.21.06-.06.13-.08.21-.08H170c.09 0 .16.03.21.08.06.06.09.13.09.21v.17c0 .09-.03.16-.09.21-.06.06-.13.08-.21.08h-2.47s-.04.01-.04.04v1.69s.01.04.04.04h2.3c.09 0 .16.03.21.09.06.06.08.13.08.21v.14c0 .08-.03.16-.08.21-.06.06-.13.09-.21.09h-2.3s-.04.01-.04.04v2.1s.01.04.04.04H170c.09 0 .16.03.21.08.06.06.09.13.09.21v.17c0 .09-.03.16-.09.21-.06.06-.13.08-.21.08h-3.16z" fill="#3e3a39"/>
  <g fill="#3e3a39">
    <path d="M162.89 135.26v-4.43c0-4.03-3.28-7.32-7.32-7.32h-11.15c-4.03 0-7.32 3.28-7.32 7.32v4.43c0 4.03 3.28 7.32 7.32 7.32h11.15c4.03 0 7.32-3.28 7.32-7.32zm-7.32 6.26h-11.15a6.27 6.27 0 01-6.26-6.26v-4.43a6.27 6.27 0 016.26-6.26h11.15a6.27 6.27 0 016.26 6.26v4.43a6.27 6.27 0 01-6.26 6.26zm13.51 8.61h-26.79c.48-1.93.37-3.4.37-3.42v-2.12a.504.504 0 00-.51-.53c-.29 0-.52.23-.53.52v2.16c0 .14.09 1.58-.39 3.38h-10.9c-.29 0-.53.24-.53.53s.24.53.53.53h10.56c-.93 2.46-3.01 5.26-7.67 6.47-.28.07-.45.36-.38.64.06.24.28.39.51.39.04 0 .09 0 .13-.02 5.28-1.38 7.53-4.7 8.49-7.49h27.1c.29 0 .53-.24.53-.53s-.24-.53-.53-.53z"/>
    <path d="M157.75 145.06v3.11c0 .29.24.53.53.53s.53-.24.53-.53v-3.11c0-.29-.24-.53-.53-.53s-.53.24-.53.53zm.53 7.56c-.29 0-.53.24-.53.53v5.03c0 .29.24.53.53.53s.53-.24.53-.53v-5.03c0-.29-.24-.53-.53-.53zm-1.21-22.8H143.1c-.29 0-.53.24-.53.53s.24.53.53.53h13.97c.29 0 .53-.24.53-.53s-.24-.53-.53-.53zm0 5.46H143.1c-.29 0-.53.24-.53.53s.24.53.53.53h13.97c.29 0 .53-.24.53-.53s-.24-.53-.53-.53zm-15.04-19.77s.04.08.07.11l4.56 4.53a.485.485 0 00.7 0c.19-.2.19-.51 0-.71l-3.17-3.15c1 .21 2.01.29 2.85.35h.16c2.04.16 4.11.13 6.14-.1l.41-.04c1.12-.12 2.42-.27 3.49-.88l4.56 4.53a.485.485 0 00.7 0c.19-.2.19-.51 0-.71l-2.98-2.96c.27.09.53.17.79.24 1.23.36 2.5.53 3.77.53 1.76 0 3.5-.34 5.12-1.02.25-.11.37-.4.27-.65a.509.509 0 00-.65-.27 12.4 12.4 0 01-8.22.45c-.79-.23-1.64-.5-2.39-.9.12-.13.23-.28.33-.44.8-1.23 1.07-3.1-.21-4.29-.31-.29-.72-.45-1.16-.42-.49.02-.97.26-1.31.64-1.09 1.23-.67 3.17.35 4.26.09.1.19.19.29.29-.83.39-1.85.5-2.85.61l-.42.04c-1.97.22-3.98.26-5.96.11h-.16c-2.04-.16-4.82-.37-5.83-2.17-.38-.68-.52-1.75-.08-2.36a.85.85 0 01.66-.37c.23-.02.46.08.63.27.5.57.53 1.59.27 2.25a.501.501 0 00.93.37c.38-.95.34-2.38-.45-3.28-.36-.41-.88-.62-1.43-.61-.57.03-1.09.32-1.42.79-.7.98-.51 2.47.02 3.43.38.68.95 1.17 1.61 1.53zm14.59-4.49c.16-.18.39-.29.61-.3h.03c.15 0 .29.05.4.15.86.8.62 2.12.05 3.01-.1.16-.22.3-.35.43a3.69 3.69 0 01-.41-.38c-.72-.77-1.03-2.13-.34-2.91zm-26.21 6.12c1.45.53 2.99.8 4.53.8s2.96-.24 4.37-.73c.46-.16.95-.33 1.42-.54.25-.11.37-.4.26-.66a.503.503 0 00-.66-.26c-.45.19-.91.36-1.35.51-2.69.92-5.61.9-8.24-.06a.501.501 0 00-.34.94z"/>
  </g>
  <g fill="#ed6d34">
    <path d="M128.48 91.27H68.89c-1.68 0-3.04-1.36-3.04-3.04V66.22c0-.85.36-1.66.98-2.24l12.8-11.77V34.3c0-.83.34-1.63.94-2.2l16-15.32a3.034 3.034 0 014.23.02l29.81 29.08c.58.57.92 1.36.92 2.18v40.16c0 1.68-1.36 3.04-3.04 3.04zM79.63 53.71L67.58 64.79c-.4.37-.63.89-.63 1.43v22.01c0 1.07.87 1.94 1.94 1.94h59.59c1.07 0 1.94-.87 1.94-1.94V48.06c0-.52-.21-1.03-.59-1.39l-29.81-29.08c-.75-.73-1.94-.74-2.7-.01l-16 15.32c-.38.36-.6.88-.6 1.4v16.9l15.67-14.41a3.043 3.043 0 014.19.07l15.46 15.13c.58.57.91 1.36.91 2.17v19.1c0 1.68-1.36 3.04-3.04 3.04H82.67c-1.68 0-3.04-1.37-3.04-3.04V53.7zm1.1-1.01v20.57c0 1.07.87 1.94 1.94 1.94h31.24c1.07 0 1.94-.87 1.94-1.94v-19.1c0-.52-.21-1.03-.58-1.39L99.81 37.65a1.94 1.94 0 00-2.67-.04L80.73 52.7z"/>
    <path d="M103.46 76.12h-9.81v-9.98c0-1.68 1.36-3.04 3.04-3.04h3.72c1.68 0 3.04 1.37 3.04 3.04v9.98zm-8.71-1.1h7.61v-8.88c0-1.07-.87-1.94-1.94-1.94H96.7c-1.07 0-1.94.87-1.94 1.94v8.88z"/>
  </g>
</svg>
