<svg xmlns="http://www.w3.org/2000/svg" viewBox="0 0 252.28 94.43">
  <path d="M45.21 16.28c-1.02-.99-2.62-1-3.65-.02L28.25 29.01c-.51.49-.81 1.18-.81 1.9v14.87l-10.62 9.77c-.54.5-.85 1.2-.85 1.93v18.31c0 1.45 1.18 2.62 2.62 2.62h49.59c1.45 0 2.62-1.18 2.62-2.62V42.36c0-.7-.29-1.39-.79-1.88L45.2 16.28zM28.54 46.25l13.63-12.53c.6-.55 1.52-.53 2.1.03l12.86 12.59c.29.29.46.68.46 1.09v15.89c0 .84-.68 1.53-1.52 1.53h-8.6v-7.03c0-1.68-1.36-3.04-3.04-3.04h-2.26c-1.68 0-3.04 1.37-3.04 3.04v7.03h-9.05c-.84 0-1.52-.68-1.52-1.53V46.24zM40.21 64.7v-6.88c0-1.07.87-1.94 1.94-1.94h2.26c1.07 0 1.94.87 1.94 1.94v6.88H40.2zm29.5 11.08c0 .84-.68 1.52-1.52 1.52H18.6c-.84 0-1.52-.68-1.52-1.52V57.47c0-.42.18-.83.49-1.12l9.88-9.08v16.07c0 1.45 1.18 2.62 2.62 2.62h26c1.45 0 2.62-1.18 2.62-2.62V47.45c0-.7-.29-1.38-.79-1.88L45.04 32.98c-1-.97-2.59-1-3.61-.06L28.55 44.77V30.92c0-.41.17-.82.47-1.1l13.31-12.75c.6-.57 1.53-.57 2.12 0l24.81 24.2c.29.29.46.68.46 1.09v33.42zm20.38 3.03h-2.57s-.04-.01-.04-.04v-5.2c0-.09-.03-.16-.09-.22s-.13-.09-.22-.09h-.39c-.09 0-.16.03-.22.09s-.09.13-.09.22v5.74c0 .09.03.16.09.22s.13.09.22.09h3.31c.09 0 .16-.03.22-.09s.09-.13.09-.22v-.19c0-.09-.03-.16-.09-.22s-.13-.09-.22-.09zm6.37-5.47a.384.384 0 00-.24-.08h-.43c-.09 0-.18.03-.25.08s-.12.13-.15.21l-1.98 5.76c-.03.07-.02.14.02.2s.1.1.18.1h.38c.09 0 .17-.03.24-.08.07-.05.12-.13.15-.21l.42-1.35s.02-.04.05-.04h2.26s.04.01.05.04l.42 1.35c.02.09.07.16.14.21.07.06.16.08.25.08h.42c.07 0 .13-.03.17-.1a.21.21 0 00.04-.2l-1.98-5.76a.392.392 0 00-.17-.21zm.44 3.82l-.02.02h-1.79s-.02 0-.03-.02v-.03l.92-2.99.92 2.99s0 .01-.01.03zm8.61-3.91h-3.57c-.09 0-.16.03-.22.09s-.09.13-.09.22v.17c0 .09.03.16.09.22s.13.09.22.09h2.75l-2.89 4.5c-.11.17-.17.36-.17.57v.17c0 .09.03.16.09.22s.13.09.22.09h3.57c.09 0 .16-.03.22-.09s.09-.13.09-.22v-.17c0-.09-.03-.16-.09-.22a.294.294 0 00-.22-.09h-2.75l2.89-4.5c.11-.17.17-.36.17-.57v-.17c0-.09-.03-.16-.09-.22s-.13-.09-.22-.09zm4.78 0h-.44c-.09 0-.16.03-.22.09s-.09.13-.09.22v5.74c0 .09.03.16.09.22s.13.09.22.09h.44c.09 0 .16-.03.22-.09s.09-.13.09-.22v-5.74c0-.09-.03-.16-.09-.22a.294.294 0 00-.22-.09zm8.43 0h-.33c-.09 0-.16.03-.22.09s-.09.13-.09.22v4.43l-2.56-4.46a.5.5 0 00-.46-.27h-.33c-.09 0-.16.03-.22.09s-.09.13-.09.22v5.74c0 .09.03.16.09.22s.13.09.22.09h.33c.09 0 .16-.03.22-.09s.09-.13.09-.22v-4.43h.02l2.55 4.46c.1.18.26.27.46.27h.33c.09 0 .16-.03.22-.09s.09-.13.09-.22v-5.74c0-.09-.03-.16-.09-.22a.294.294 0 00-.22-.09zm7.43 0h-3.22c-.09 0-.16.03-.22.09s-.09.13-.09.22v5.74c0 .09.03.16.09.22s.13.09.22.09h3.22c.09 0 .16-.03.22-.09s.09-.13.09-.22v-.17c0-.09-.03-.16-.09-.22s-.13-.09-.22-.09h-2.52s-.04-.01-.04-.04v-2.14s.01-.04.04-.04h2.35c.09 0 .16-.03.22-.09s.09-.13.09-.22v-.14c0-.09-.03-.16-.09-.22a.294.294 0 00-.22-.09h-2.35s-.04-.01-.04-.04v-1.72s.01-.04.04-.04h2.52c.09 0 .16-.03.22-.09s.09-.13.09-.22v-.17c0-.09-.03-.16-.09-.22a.294.294 0 00-.22-.09zm5.39 2.62c-.31-.1-.54-.25-.7-.43a.906.906 0 01-.24-.61c0-.28.08-.5.25-.65.17-.16.41-.24.72-.24.5 0 .99.11 1.46.34.06.03.13.03.19 0a.18.18 0 00.09-.16v-.29c0-.21-.1-.35-.3-.42-.44-.16-.95-.24-1.53-.24s-1.02.15-1.34.44c-.33.3-.49.7-.49 1.21 0 .45.15.83.44 1.14s.77.59 1.43.81c.39.14.67.3.84.48.17.18.25.4.25.65 0 .67-.42 1-1.26 1-.46 0-.89-.12-1.3-.36-.06-.04-.12-.04-.17 0a.15.15 0 00-.09.14v.3c0 .21.1.36.29.44.39.17.84.25 1.37.25.7 0 1.23-.15 1.59-.45.36-.3.54-.75.54-1.33 0-.48-.15-.88-.45-1.19-.3-.31-.83-.6-1.6-.85zm6.91 0c-.31-.1-.54-.25-.7-.43a.906.906 0 01-.24-.61c0-.28.08-.5.25-.65.17-.16.41-.24.72-.24.5 0 .99.11 1.46.34.06.03.13.03.19 0a.18.18 0 00.09-.16v-.29c0-.21-.1-.35-.3-.42-.44-.16-.95-.24-1.53-.24s-1.02.15-1.34.44c-.33.3-.49.7-.49 1.21 0 .45.15.83.44 1.14.29.32.77.59 1.43.81.39.14.67.3.84.48.16.18.25.4.25.65 0 .67-.42 1-1.26 1-.46 0-.89-.12-1.3-.36-.06-.04-.12-.04-.17 0a.15.15 0 00-.09.14v.3c0 .21.1.36.29.44.39.17.84.25 1.37.25.7 0 1.23-.15 1.59-.45.36-.3.54-.75.54-1.33 0-.48-.15-.88-.45-1.19-.3-.31-.83-.6-1.6-.85zm13.77 2.9c-.34.09-.72.14-1.14.14-.61 0-1.1-.22-1.47-.65-.37-.43-.56-1.04-.56-1.83s.18-1.4.54-1.83c.36-.43.86-.65 1.48-.65.39 0 .76.05 1.09.14.08.02.14.01.21-.03.06-.05.1-.11.1-.18v-.23c0-.09-.03-.17-.08-.24a.393.393 0 00-.21-.13c-.34-.07-.74-.1-1.18-.1-.92 0-1.63.29-2.15.86-.51.57-.77 1.38-.77 2.4s.26 1.84.8 2.41c.53.57 1.24.85 2.12.85.43 0 .84-.04 1.23-.11.09-.02.16-.06.21-.13a.34.34 0 00.08-.23V79c0-.08-.03-.14-.09-.18a.21.21 0 00-.2-.04zm6.44-5.43a.384.384 0 00-.24-.08h-.43c-.09 0-.18.03-.25.08s-.12.13-.15.21l-1.98 5.76c-.03.07-.02.14.02.2s.1.1.18.1h.38c.09 0 .17-.03.24-.08.07-.05.12-.13.15-.21l.42-1.35s.02-.04.05-.04h2.26s.04.01.05.04l.42 1.35c.02.09.07.16.14.21.07.06.16.08.25.08h.42c.07 0 .13-.03.17-.1a.21.21 0 00.04-.2l-1.98-5.76a.425.425 0 00-.16-.21zm.44 3.82l-.02.02h-1.79s-.02 0-.03-.02v-.03l.92-2.99.92 2.99s0 .01-.01.03zm9.14-3.91h-.33c-.09 0-.16.03-.22.09s-.09.13-.09.22v4.43l-2.56-4.46a.5.5 0 00-.46-.27h-.33c-.09 0-.16.03-.22.09s-.09.13-.09.22v5.74c0 .09.03.16.09.22s.13.09.22.09h.33c.09 0 .16-.03.22-.09s.09-.13.09-.22v-4.43h.02l2.55 4.46c.1.18.26.27.46.27h.33c.09 0 .16-.03.22-.09s.09-.13.09-.22v-5.74c0-.09-.03-.16-.09-.22a.294.294 0 00-.22-.09zm11.2 2.93c.39-.08.7-.25.94-.51s.36-.57.36-.92c0-1.04-.78-1.57-2.35-1.57-.42 0-.87.03-1.35.09-.09.01-.16.05-.22.12-.06.07-.09.14-.09.23v5.66c0 .09.03.16.09.23s.13.11.22.12c.43.06.91.09 1.43.09 1.68 0 2.52-.64 2.52-1.91 0-.42-.14-.78-.41-1.06-.28-.28-.66-.46-1.14-.54zm-1.75-2.14s.01-.05.04-.05c.2-.04.42-.05.65-.05.52 0 .89.08 1.11.23.23.15.34.39.34.71s-.14.58-.42.74c-.28.16-.74.24-1.38.24h-.3s-.04-.01-.04-.04v-1.77zm1.98 4.59c-.25.2-.66.3-1.2.3-.27 0-.51-.02-.74-.05-.03 0-.04-.02-.04-.05v-2.18s.01-.04.04-.04h.3c.73 0 1.25.09 1.56.26.31.18.46.45.46.83 0 .42-.13.73-.38.93zm8.07-5.38h-3.22c-.09 0-.16.03-.22.09s-.09.13-.09.22v5.74c0 .09.03.16.09.22s.13.09.22.09h3.22c.09 0 .16-.03.22-.09s.09-.13.09-.22v-.17c0-.09-.03-.16-.09-.22a.294.294 0 00-.22-.09h-2.52s-.04-.01-.04-.04v-2.14s.01-.04.04-.04h2.35c.09 0 .16-.03.22-.09s.09-.13.09-.22v-.14c0-.09-.03-.16-.09-.22a.294.294 0 00-.22-.09h-2.35s-.04-.01-.04-.04v-1.72s.01-.04.04-.04h2.52c.09 0 .16-.03.22-.09s.09-.13.09-.22v-.17c0-.09-.03-.16-.09-.22a.294.294 0 00-.22-.09zm10.05 2.62c-.31-.1-.54-.25-.7-.43a.906.906 0 01-.24-.61c0-.28.08-.5.25-.65.17-.16.41-.24.72-.24.5 0 .99.11 1.46.34.06.03.13.03.19 0a.18.18 0 00.09-.16v-.29c0-.21-.1-.35-.3-.42-.44-.16-.95-.24-1.53-.24s-1.02.15-1.34.44c-.33.3-.49.7-.49 1.21 0 .45.15.83.44 1.14s.77.59 1.43.81c.39.14.67.3.84.48.17.18.25.4.25.65 0 .67-.42 1-1.26 1-.46 0-.89-.12-1.3-.36-.06-.04-.12-.04-.17 0a.15.15 0 00-.09.14v.3c0 .21.1.36.29.44.39.17.84.25 1.37.25.7 0 1.23-.15 1.59-.45.36-.3.54-.75.54-1.33 0-.48-.15-.88-.45-1.19-.3-.31-.83-.6-1.6-.85zm6.39-2.62h-.44c-.09 0-.16.03-.22.09s-.09.13-.09.22v5.74c0 .09.03.16.09.22s.13.09.22.09h.44c.09 0 .16-.03.22-.09s.09-.13.09-.22v-5.74c0-.09-.03-.16-.09-.22a.294.294 0 00-.22-.09zm9.57 0h-.35c-.2 0-.34.09-.44.28l-1.78 3.46-1.78-3.46c-.1-.19-.25-.28-.44-.28h-.31c-.09 0-.16.03-.22.09s-.09.13-.09.22v5.74c0 .09.03.16.09.22s.13.09.22.09h.31c.09 0 .16-.03.22-.09s.09-.13.09-.22v-4.39l1.34 2.67c.1.19.25.28.44.28h.26c.2 0 .34-.09.44-.28l1.34-2.67v4.39c0 .09.03.16.09.22s.13.09.22.09h.35c.09 0 .16-.03.22-.09s.09-.13.09-.22v-5.74c0-.09-.03-.16-.09-.22s-.13-.09-.22-.09zm5.82-.08c-.58 0-1.11.03-1.6.09-.09.01-.16.05-.22.11s-.09.14-.09.24v5.7c0 .09.03.16.09.22s.13.09.22.09h.35c.09 0 .16-.03.22-.09s.09-.13.09-.22v-2.04s.01-.04.04-.04c.32.03.62.04.91.04 1.62 0 2.44-.71 2.44-2.13 0-.63-.21-1.11-.62-1.45-.41-.34-1.02-.51-1.82-.51zm1.09 3.01c-.27.22-.66.33-1.17.33-.31 0-.58-.02-.82-.06-.03 0-.05-.02-.05-.05v-2.36s.02-.05.05-.05c.26-.04.53-.05.82-.05.52 0 .92.11 1.18.33.27.22.4.54.4.95s-.14.74-.41.96zm8.12 2.63h-2.57s-.04-.01-.04-.04v-5.2c0-.09-.03-.16-.09-.22s-.13-.09-.22-.09h-.39c-.09 0-.16.03-.22.09s-.09.13-.09.22v5.74c0 .09.03.16.09.22s.13.09.22.09h3.31c.09 0 .16-.03.22-.09s.09-.13.09-.22v-.19c0-.09-.03-.16-.09-.22s-.13-.09-.22-.09zm4.69-4.77h2.52c.09 0 .16-.03.22-.09s.09-.13.09-.22v-.17c0-.09-.03-.16-.09-.22a.294.294 0 00-.22-.09h-3.22c-.09 0-.16.03-.22.09s-.09.13-.09.22v5.74c0 .09.03.16.09.22s.13.09.22.09h3.22c.09 0 .16-.03.22-.09s.09-.13.09-.22v-.17c0-.09-.03-.16-.09-.22a.294.294 0 00-.22-.09h-2.52s-.04-.01-.04-.04v-2.14s.01-.04.04-.04h2.35c.09 0 .16-.03.22-.09s.09-.13.09-.22v-.14c0-.09-.03-.16-.09-.22a.294.294 0 00-.22-.09h-2.35s-.04-.01-.04-.04v-1.72s.01-.04.04-.04zm-59.38-58.8h-3.45c-3.88 0-7.04 3.16-7.04 7.04s3.16 7.04 7.04 7.04h3.45c3.88 0 7.04-3.16 7.04-7.04s-3.16-7.04-7.04-7.04zm0 13h-3.45c-3.29 0-5.96-2.67-5.96-5.96s2.67-5.96 5.96-5.96h3.45c3.29 0 5.96 2.67 5.96 5.96s-2.67 5.96-5.96 5.96zm-68-3.28v2.24c0 .3.24.54.54.54s.54-.24.54-.54v-2.24c0-.3-.24-.54-.54-.54s-.54.24-.54.54zm.54 5.58c-.3 0-.54.24-.54.54v31.6c0 .3.24.54.54.54s.54-.24.54-.54v-31.6c0-.3-.24-.54-.54-.54zm73.96 3.26h-16.45c-.3 0-.54.24-.54.54s.24.54.54.54h16.45c.3 0 .54-.24.54-.54s-.24-.54-.54-.54zm-6.37 7.75c.3 0 .54-.24.54-.54s-.24-.54-.54-.54h-10.07c-.3 0-.54.24-.54.54s.24.54.54.54h10.07zM122.4 58.08c.33-.6.77-1.44 1.18-2.32a.534.534 0 10-.97-.45c-.49 1.04-1.03 2.04-1.34 2.61-1.23-.09-2.49.14-3.66.77-.96.52-2.11 1.87-1.49 3.12.21.42.55.7.99.81.66.16 1.42-.12 1.88-.46 1.1-.83 2-1.98 2.83-3.06 2.24.39 4.37 1.93 5.41 3.86.1.18.28.28.47.28.09 0 .17-.02.26-.06.26-.14.36-.47.22-.73-1.13-2.1-3.34-3.8-5.78-4.35zm-4.06 3.2c-.26.19-.7.35-.99.28-.13-.03-.21-.1-.28-.23-.29-.6.52-1.43 1.04-1.7.77-.41 1.59-.61 2.42-.64-.67.85-1.37 1.68-2.2 2.3zm-13.71-37.56c2.55 0 5.17-.98 7.19-2.93 1.2-1.15 1.98-2.94 1.05-4.32-.38-.57-.96-.93-1.68-1.04-.94-.15-2.06.17-2.87.8-1.5 1.18-1.9 2.77-2.11 4.32-.04.29.17.56.46.6.29.04.56-.17.6-.46.21-1.53.57-2.72 1.71-3.61.58-.45 1.4-.68 2.04-.58.41.07.73.26.95.58.67.99-.3 2.36-.91 2.95-3.47 3.35-8.88 3.53-12.06.41a.546.546 0 00-.76 0c-.21.21-.2.55 0 .76 1.72 1.69 4.02 2.53 6.37 2.53zm45.91 9.19c1.83-.13 6.22-.79 7.48-3.95.33-.84.25-1.72-.22-2.43-.46-.69-1.24-1.1-2.12-1.11-2.73-.08-4.36 2.35-4.72 4.59-.05.29.15.57.44.62.29.05.57-.15.62-.44.29-1.78 1.54-3.69 3.6-3.69h.05c.52 0 .98.24 1.24.63.27.41.31.93.11 1.43-1.06 2.67-5.28 3.18-6.55 3.27-2.86.21-5.54-.51-7.35-1.98a.54.54 0 00-.68.84c1.8 1.45 4.33 2.25 7.06 2.25.34 0 .69-.01 1.04-.04z" fill="#fff"/>
  <path d="M113.96 34.31v-1.34c0-2.57-2.09-4.67-4.67-4.67H104c-2.57 0-4.67 2.09-4.67 4.67v1.34c0 2.39 1.81 4.34 4.12 4.61-.08 2.66-.82 15.76-7.44 23.41-.19.22-.17.56.05.76.1.09.23.13.35.13.15 0 .3-.06.41-.19 7.62-8.81 7.71-23.96 7.71-24.6 0-.3-.24-.54-.54-.54-1.98 0-3.59-1.61-3.59-3.59v-1.34c0-1.98 1.61-3.59 3.59-3.59h5.29c1.98 0 3.59 1.61 3.59 3.59v1.34c0 1.98-1.61 3.59-3.59 3.59-.3 0-.54.24-.54.54s.24.54.54.54c2.57 0 4.67-2.09 4.67-4.67zm-24.18-8.24c0-.3-.28-.52-.55-.52-.3 0-.53.25-.52.55 0 .1.21 10.23-3.18 17.35-.13.27-.01.59.25.72.07.04.15.05.23.05.2 0 .39-.11.49-.31 3.5-7.35 3.29-17.41 3.28-17.83zm7.9 12.26c.06 0 .13-.01.19-.04.28-.11.41-.42.31-.7-1.96-5.04-4.59-8.22-5.22-8.95V15.89c0-.3-.24-.54-.54-.54s-.54.24-.54.54v46.79c0 .3.24.54.54.54s.54-.24.54-.54V30.37c1.06 1.4 2.83 4.04 4.22 7.62.08.21.29.34.5.34zm23.36 15.43h2.52c.44 0 .87-.06 1.28-.19a4.515 4.515 0 003.21-4.31V34.18c0-2.48-2.02-4.49-4.49-4.49h-2.52c-2.48 0-4.49 2.02-4.49 4.49v15.08c0 2.48 2.02 4.49 4.49 4.49zm-3.42-19.57c0-1.89 1.53-3.42 3.42-3.42h2.52c1.89 0 3.42 1.53 3.42 3.42v15.08c0 1.5-1.01 2.85-2.44 3.28-.31.09-.64.14-.98.14h-2.52c-1.89 0-3.42-1.53-3.42-3.42V34.19z" fill="#fff"/>
  <path d="M120.23 38.36h4.46c.3 0 .54-.24.54-.54s-.24-.54-.54-.54h-4.46c-.3 0-.54.24-.54.54s.24.54.54.54zm46.59 10.39c-.25.15-.34.48-.18.74l2.3 3.82c.1.17.28.26.46.26a.5.5 0 00.28-.08c.25-.15.34-.48.18-.74l-2.3-3.82a.527.527 0 00-.74-.18zm8.17-27.01h-4.46c-.3 0-.54.24-.54.54s.24.54.54.54h4.46c.3 0 .54-.24.54-.54s-.24-.54-.54-.54zm-54.76 23.58h4.46c.3 0 .54-.24.54-.54s-.24-.54-.54-.54h-4.46c-.3 0-.54.24-.54.54s.24.54.54.54zm-2.37-27.17h6.71c1.33 0 2.41 1.08 2.41 2.41v3.64c0 1.09-.89 1.98-1.98 1.98-.3 0-.54.24-.54.54s.24.54.54.54a3.06 3.06 0 003.06-3.06v-3.64c0-1.92-1.56-3.49-3.49-3.49h-6.71c-.3 0-.54.24-.54.54s.24.54.54.54z" fill="#fff"/>
  <path d="M120.57 20.21s-.15 4.4-2.84 5.4a.537.537 0 10.37 1.01c3.38-1.26 3.54-6.17 3.55-6.38 0-.3-.23-.54-.52-.55a.549.549 0 00-.55.52zm-5.42 37.74c.11 0 .23-.04.33-.11a.54.54 0 00.1-.75c-4.57-5.92-5.06-16-5.06-16.1-.01-.3-.26-.55-.56-.51-.3.01-.53.26-.51.56.02.43.5 10.52 5.29 16.71.11.14.26.21.43.21zm61.99-13.31c-.01-.78-.02-1.53-.02-2.25v-5.46c0-.3-.24-.54-.54-.54s-.54.24-.54.54v5.46c0 .72.01 1.47.02 2.26.11 7.24.24 16.24-7.34 18.67-.28.09-.44.39-.35.68.07.23.28.37.51.37.05 0 .11 0 .16-.03 8.34-2.67 8.19-12.52 8.08-19.71zM152.1 43.1c-.01-.84-.02-1.66-.02-2.43v-5.9c0-.3-.24-.54-.54-.54s-.54.24-.54.54v5.9c0 .77.01 1.59.02 2.44.12 7.83.26 17.58-7.96 20.22-.28.09-.44.39-.35.68.07.23.28.37.51.37.05 0 .11 0 .16-.03 8.98-2.88 8.82-13.5 8.71-21.26zm28.49-2.63h-1.71c-.3 0-.54.24-.54.54s.24.54.54.54h1.71c.3 0 .54-.24.54-.54s-.24-.54-.54-.54zm-37.36-14.89c10.26-.06 14.75-8.56 14.79-8.65.14-.26.03-.59-.23-.72a.532.532 0 00-.72.23c-.04.08-4.25 8-13.84 8.06-.3 0-.54.24-.53.54 0 .3.24.53.54.53zm85.52 15.21v-4.52c0-4.11-3.35-7.46-7.46-7.46h-11.37c-4.11 0-7.46 3.35-7.46 7.46v4.52c0 4.11 3.35 7.46 7.46 7.46h11.37c4.11 0 7.46-3.35 7.46-7.46zm-7.46 6.39h-11.37c-3.52 0-6.39-2.87-6.39-6.39v-4.52c0-3.52 2.87-6.39 6.39-6.39h11.37c3.52 0 6.39 2.87 6.39 6.39v4.52c0 3.52-2.87 6.39-6.39 6.39zm14.31 9.32c0-.3-.24-.54-.54-.54h-27.32c.49-1.97.38-3.47.38-3.49v-2.16a.51.51 0 00-.52-.54c-.3 0-.54.24-.54.53v2.21c0 .14.09 1.61-.4 3.45h-11.11c-.3 0-.54.24-.54.54s.24.54.54.54h10.77c-.95 2.51-3.06 5.36-7.82 6.6a.53.53 0 00-.38.66c.06.24.28.4.52.4.05 0 .09 0 .14-.02 5.38-1.4 7.68-4.79 8.66-7.64h27.64c.3 0 .54-.24.54-.54z" fill="#fff"/>
  <path d="M223.51 50.79v3.18c0 .3.24.54.54.54s.54-.24.54-.54v-3.18c0-.3-.24-.54-.54-.54s-.54.24-.54.54zm.54 7.7c-.3 0-.54.24-.54.54v5.13c0 .3.24.54.54.54s.54-.24.54-.54v-5.13c0-.3-.24-.54-.54-.54zm-1.23-23.24h-14.24c-.3 0-.54.24-.54.54s.24.54.54.54h14.24c.3 0 .54-.24.54-.54s-.24-.54-.54-.54zm0 5.57h-14.24c-.3 0-.54.24-.54.54s.24.54.54.54h14.24c.3 0 .54-.24.54-.54s-.24-.54-.54-.54zm-15.45-20.21s.05.04.08.07c.42.36.79.77 1.18 1.16.85.85 1.71 1.69 2.56 2.54.34.33.67.67 1.01 1a.508.508 0 00.72 0c.2-.2.2-.52 0-.72l-3.23-3.21c1.02.21 2.05.3 2.91.36h.17c2.08.17 4.19.13 6.27-.1l.42-.05c1.14-.12 2.47-.28 3.55-.9l4.65 4.62a.508.508 0 00.72 0c.2-.2.2-.52 0-.72l-3.04-3.02c.27.09.54.17.81.25 1.26.36 2.55.54 3.84.54 1.79 0 3.57-.35 5.23-1.04a.51.51 0 10-.4-.94c-2.63 1.1-5.61 1.27-8.39.46-.8-.23-1.67-.51-2.44-.92.12-.14.24-.29.34-.45.81-1.26 1.09-3.16-.21-4.38-.32-.3-.73-.46-1.18-.43-.5.02-.99.26-1.34.65-1.11 1.26-.68 3.23.36 4.34.09.1.19.2.3.29-.84.4-1.89.51-2.91.62l-.43.05c-2.01.23-4.06.26-6.07.11h-.17c-2.08-.17-4.92-.38-5.95-2.22-.39-.69-.53-1.78-.08-2.41.16-.23.4-.36.67-.38.24-.02.47.08.64.27.51.58.54 1.62.28 2.29-.1.26.02.56.28.66.26.1.56-.02.66-.28.38-.97.35-2.42-.46-3.34-.37-.42-.9-.63-1.46-.62-.58.03-1.11.32-1.45.81-.71 1-.52 2.52.02 3.5.36.65.98 1.06 1.54 1.53zm14.98-4.54c.16-.18.4-.3.63-.31h.04c.16 0 .29.05.4.16.87.81.64 2.16.05 3.07-.11.16-.22.31-.35.44a3.88 3.88 0 01-.42-.39c-.74-.79-1.05-2.17-.34-2.97zm-26.72 6.25c1.48.54 3.05.81 4.62.81s3.01-.25 4.46-.74c.47-.16.97-.34 1.45-.55a.51.51 0 10-.4-.94c-.46.2-.93.37-1.37.52-2.74.94-5.72.92-8.4-.06-.26-.1-.56.04-.65.3-.1.26.04.56.3.65z" fill="#fff"/>
</svg>
